{
    "asset" : {
        "generator" : "Khronos glTF Blender I/O v1.8.19",
        "version" : "2.0"
    },
    "extensionsUsed" : [
        "KHR_materials_unlit"
    ],
    "scene" : 0,
    "scenes" : [
        {
            "name" : "Scene",
            "nodes" : [
                0
            ]
        }
    ],
    "nodes" : [
        {
            "mesh" : 0,
            "name" : "body-mesh"
        }
    ],
    "materials" : [
        {
            "doubleSided" : true,
            "extensions" : {
                "KHR_materials_unlit" : {}
            },
            "name" : "colormap.004",
            "pbrMetallicRoughness" : {
                "metallicFactor" : 0,
                "roughnessFactor" : 0.9
            }
        }
    ],
    "meshes" : [
        {
            "name" : "body-mesh",
            "primitives" : [
                {
                    "attributes" : {
                        "POSITION" : 0,
                        "NORMAL" : 1,
                        "TEXCOORD_0" : 2,
                        "TEXCOORD_1" : 3
                    },
                    "indices" : 4,
                    "material" : 0
                }
            ]
        }
    ],
    "accessors" : [
        {
            "bufferView" : 0,
            "componentType" : 5126,
            "count" : 1035,
            "max" : [
                1.9570879936218262,
                3.876143455505371,
                1.3339171409606934
            ],
            "min" : [
                -1.9457316398620605,
                0.00978076457977295,
                -0.9693709015846252
            ],
            "type" : "VEC3"
        },
        {
            "bufferView" : 1,
            "componentType" : 5126,
            "count" : 1035,
            "type" : "VEC3"
        },
        {
            "bufferView" : 2,
            "componentType" : 5126,
            "count" : 1035,
            "type" : "VEC2"
        },
        {
            "bufferView" : 3,
            "componentType" : 5126,
            "count" : 1035,
            "type" : "VEC2"
        },
        {
            "bufferView" : 4,
            "componentType" : 5123,
            "count" : 1257,
            "type" : "SCALAR"
        }
    ],
    "bufferViews" : [
        {
            "buffer" : 0,
            "byteLength" : 12420,
            "byteOffset" : 0
        },
        {
            "buffer" : 0,
            "byteLength" : 12420,
            "byteOffset" : 12420
        },
        {
            "buffer" : 0,
            "byteLength" : 8280,
            "byteOffset" : 24840
        },
        {
            "buffer" : 0,
            "byteLength" : 8280,
            "byteOffset" : 33120
        },
        {
            "buffer" : 0,
            "byteLength" : 2514,
            "byteOffset" : 41400
        }
    ],
    "buffers" : [
        {
            "byteLength" : 43916,
            "uri" : "player.bin"
        }
    ]
}
